<?xml version="1.0" standalone="no"?>
<!DOCTYPE svg PUBLIC "-//W3C//DTD SVG 20010904//EN"
 "http://www.w3.org/TR/2001/REC-SVG-20010904/DTD/svg10.dtd">
<svg version="1.0" xmlns="http://www.w3.org/2000/svg"
 width="1080.000000pt" height="1080.000000pt" viewBox="0 0 1080.000000 1080.000000"
 preserveAspectRatio="xMidYMid meet">
<metadata>
Created by potrace 1.14, written by Peter Selinger 2001-2017
</metadata>
<g transform="translate(0.000000,1080.000000) scale(0.100000,-0.100000)"
fill="#000000" stroke="none">
<path d="M4765 10742 c-314 -108 -574 -262 -755 -449 -58 -60 -136 -146 -175
-191 -38 -46 -75 -89 -80 -95 -19 -22 -181 -271 -212 -327 -55 -98 -150 -338
-188 -475 -24 -86 -94 -314 -110 -356 -7 -20 -19 -65 -25 -100 -6 -35 -20
-102 -30 -149 -23 -101 -60 -334 -60 -370 0 -14 -1 -36 -3 -50 -2 -14 0 -28 6
-31 5 -4 0 -16 -12 -28 -12 -12 -24 -35 -28 -51 -3 -17 -9 -30 -13 -30 -5 0
-6 -10 -2 -22 3 -13 1 -19 -5 -15 -13 8 -24 -41 -17 -70 3 -11 -1 -25 -10 -32
-9 -8 -16 -21 -16 -31 0 -10 -7 -20 -15 -24 -8 -3 -12 -12 -9 -21 3 -8 1 -15
-6 -15 -6 0 -8 -4 -5 -10 3 -5 -2 -24 -12 -40 -16 -27 -16 -32 -3 -41 13 -8
13 -11 -1 -22 -8 -6 -19 -19 -23 -27 -14 -31 -32 -56 -54 -80 -13 -14 -30 -33
-38 -42 -9 -9 -13 -22 -9 -28 7 -11 -33 -60 -51 -60 -15 0 -65 -57 -106 -120
-19 -31 -71 -96 -114 -145 -94 -107 -199 -254 -244 -345 -43 -86 -98 -238
-116 -323 -16 -79 -19 -239 -4 -268 8 -14 7 -26 -4 -46 -18 -35 -70 -230 -92
-348 -14 -71 -18 -146 -18 -350 -1 -248 0 -266 27 -395 27 -125 65 -271 88
-330 8 -21 2 -43 -36 -125 -25 -55 -50 -109 -55 -120 -4 -11 -47 -100 -94
-199 -75 -155 -88 -177 -101 -166 -9 7 -44 23 -78 34 -55 19 -62 25 -68 54 -7
34 -2 40 45 60 27 12 28 12 24 -13 -7 -35 14 -32 46 6 28 32 29 38 20 63 -8
22 -26 20 -78 -9 -51 -28 -76 -32 -76 -11 0 20 -19 31 -33 17 -7 -7 -7 -21 2
-48 7 -21 13 -54 14 -73 2 -33 1 -35 -28 -32 -36 4 -60 -19 -68 -63 -7 -38 8
-65 35 -65 21 0 58 34 58 53 0 17 29 -27 30 -44 0 -26 -34 -49 -73 -49 -52 0
-87 -16 -87 -39 0 -24 28 -41 64 -41 33 0 34 18 1 26 -35 9 -31 24 5 24 54 0
100 26 106 60 8 36 8 36 41 10 14 -11 34 -20 44 -20 11 0 19 -4 19 -9 0 -13
-39 -105 -104 -246 -62 -133 -76 -165 -76 -174 0 -4 -10 -30 -21 -57 -12 -27
-41 -114 -65 -194 -23 -80 -65 -215 -92 -300 -59 -185 -201 -725 -236 -900
-37 -184 -72 -377 -95 -530 -12 -74 -27 -164 -33 -200 -14 -71 -17 -349 -6
-392 7 -23 3 -29 -27 -48 -19 -12 -33 -25 -30 -30 3 -4 -4 -6 -15 -3 -14 4
-20 0 -20 -11 0 -15 -8 -18 -58 -20 -26 0 -84 -48 -197 -162 -58 -58 -91 -101
-118 -156 l-39 -76 4 -109 c3 -101 6 -114 44 -200 23 -50 66 -130 95 -177 l54
-86 70 0 c49 0 66 3 58 11 -12 12 -6 49 9 49 5 0 6 5 3 10 -4 6 8 10 29 10 20
0 36 -4 36 -10 0 -5 -5 -10 -11 -10 -5 0 -7 -5 -3 -11 4 -8 9 -7 15 2 13 22
20 4 10 -25 l-11 -26 289 0 289 0 5 23 c3 12 9 74 12 137 11 184 48 277 132
325 135 80 293 152 403 187 36 11 81 27 100 36 47 21 275 28 412 12 57 -6 195
-27 308 -46 113 -19 248 -42 300 -50 52 -8 128 -23 170 -33 41 -11 138 -27
215 -36 77 -10 176 -22 219 -29 l80 -12 12 -49 c7 -26 22 -114 33 -194 31
-220 42 -271 59 -271 11 0 13 8 8 38 -4 20 -17 109 -31 197 -13 88 -31 196
-39 240 -8 44 -27 141 -40 217 -14 75 -36 187 -50 250 -13 62 -27 147 -31 188
-3 41 -17 161 -30 265 -14 105 -32 291 -40 414 -15 211 -31 367 -41 382 -6 10
-34 491 -34 587 0 47 -5 93 -12 105 -7 12 -18 102 -25 202 -6 99 -19 275 -27
390 -9 116 -16 274 -16 353 0 137 1 144 26 182 19 29 37 43 63 49 64 16 135
30 181 35 25 3 63 8 85 10 22 3 47 7 55 10 8 3 107 12 220 21 113 9 213 18
222 21 9 3 40 6 70 8 29 2 96 7 148 11 52 4 120 8 150 10 90 5 557 43 670 55
58 6 116 11 130 11 14 -1 165 6 335 14 171 9 407 20 525 25 118 6 328 19 465
30 138 10 338 24 445 30 107 6 263 15 345 20 83 5 281 16 440 25 160 9 378 22
485 30 302 23 949 55 1100 55 l135 0 72 -77 c68 -72 74 -82 87 -148 30 -138
37 -254 31 -509 -3 -138 -10 -303 -15 -366 -5 -63 -14 -178 -20 -255 -16 -207
-28 -325 -60 -570 -41 -307 -55 -429 -90 -750 -17 -154 -41 -368 -55 -475 -22
-175 -47 -429 -76 -790 -5 -69 -11 -132 -14 -140 -2 -8 -6 -42 -9 -75 -14
-141 -29 -246 -36 -250 -3 -2 -103 -11 -221 -20 -118 -9 -302 -24 -409 -34
l-195 -19 201 -1 c213 -1 587 22 642 40 37 12 37 11 51 174 6 66 18 197 27
290 8 94 19 213 24 265 16 180 40 406 60 570 11 91 27 237 35 325 9 88 23 207
30 265 13 96 28 231 55 495 6 55 17 154 25 220 7 66 18 172 24 235 6 63 18
185 26 270 18 186 35 565 35 785 -1 323 -59 491 -198 572 l-44 26 -191 -7
c-106 -4 -300 -13 -432 -20 -274 -14 -255 -19 -289 77 -10 28 -34 85 -52 125
-19 41 -34 81 -34 91 0 16 -53 114 -273 506 -113 201 -195 296 -335 388 -137
90 -279 159 -407 200 -114 35 -153 43 -390 76 -447 63 -646 95 -780 126 -82
19 -183 36 -223 39 -40 2 -78 9 -85 14 -7 5 -28 14 -47 21 -19 6 -58 26 -87
43 -83 50 -87 65 -80 332 2 123 8 229 11 235 4 6 2 11 -4 11 -8 0 -8 6 0 20 6
12 8 30 5 40 -8 24 60 100 143 162 29 22 56 47 60 56 18 45 65 111 74 106 12
-7 158 134 158 153 0 6 6 18 13 25 7 7 21 28 30 46 9 17 25 47 34 65 9 17 23
38 30 45 7 7 13 20 13 29 0 20 31 74 53 93 10 8 21 35 24 60 4 25 13 50 21 56
8 6 15 23 15 37 0 15 3 24 7 22 4 -3 11 7 15 22 4 17 2 29 -4 31 -14 5 -14 32
-1 32 6 0 10 22 10 48 0 27 3 52 7 56 13 13 43 101 43 127 0 14 7 40 16 58 30
61 36 287 10 396 -9 39 -19 87 -23 108 -3 20 -9 37 -13 37 -4 0 -11 17 -15 38
-4 20 -13 51 -20 67 -7 17 -16 41 -20 55 -4 14 -16 45 -28 70 -12 25 -22 60
-23 79 0 19 -8 39 -17 46 -10 7 -17 17 -17 24 0 6 -4 11 -8 11 -9 0 -53 93
-105 220 -19 47 -51 120 -71 162 -31 68 -55 113 -162 306 -13 23 -23 43 -23
45 1 1 -6 19 -15 41 -9 21 -16 42 -16 47 0 5 -20 40 -45 78 -25 38 -45 74 -45
78 0 36 -75 136 -191 254 -46 46 -211 139 -249 139 -13 0 -21 13 -29 45 -24
94 -210 207 -426 259 -55 13 -121 16 -315 16 l-245 0 -170 -58z m881 -52 c26
-11 45 -23 42 -25 -3 -3 -29 6 -59 20 -64 30 -51 34 17 5z m90 -46 c18 -14 18
-14 -6 -3 -31 14 -36 19 -24 19 6 0 19 -7 30 -16z m144 -104 c6 -11 9 -20 7
-20 -2 0 -12 9 -22 20 -10 11 -13 20 -7 20 6 0 16 -9 22 -20z m-220 -285 c-30
-17 -40 -18 -40 -6 0 10 22 18 50 19 8 1 4 -5 -10 -13z m-100 -25 c0 -5 -5
-10 -11 -10 -5 0 -7 5 -4 10 3 6 8 10 11 10 2 0 4 -4 4 -10z m277 -223 c68
-131 156 -247 285 -377 84 -86 152 -180 226 -317 17 -30 16 -32 -39 -39 -70
-9 -221 -81 -348 -164 -64 -43 -123 -85 -130 -94 -26 -31 29 -18 119 28 154
80 335 129 436 119 47 -5 57 -10 81 -42 14 -20 50 -65 79 -101 76 -96 101
-135 120 -193 9 -29 28 -77 42 -107 l25 -55 -6 -290 c-6 -281 -9 -334 -23
-378 -3 -11 -8 -43 -9 -71 -9 -162 -55 -375 -115 -532 -23 -60 -48 -125 -56
-144 -7 -19 -13 -48 -14 -63 0 -22 -19 -47 -82 -109 -102 -99 -259 -235 -313
-271 -171 -113 -507 -152 -632 -74 -47 29 -160 70 -193 69 -13 0 -33 6 -44 14
-11 8 -26 14 -34 14 -26 0 0 -21 66 -53 37 -18 94 -47 127 -65 79 -42 119 -48
305 -47 155 1 248 14 273 40 7 7 24 16 37 20 44 14 152 76 171 98 14 16 18 18
13 5 -8 -24 5 -23 33 4 27 25 29 15 8 -35 -11 -26 -15 -74 -15 -169 0 -73 -4
-209 -9 -303 -9 -169 -5 -244 14 -248 6 -1 11 31 13 76 2 42 7 77 12 77 6 0
10 -4 10 -9 0 -14 59 -71 65 -61 3 5 22 1 43 -9 79 -39 148 -64 172 -64 25 0
25 -1 19 -71 -6 -84 -26 -136 -102 -276 -31 -56 -57 -106 -57 -109 0 -39 -220
-281 -255 -281 -8 0 -15 -5 -15 -10 0 -6 -6 -10 -12 -9 -7 1 -22 -2 -33 -6
-25 -11 -182 -120 -215 -150 -79 -73 -324 -160 -468 -168 -79 -4 -82 -3 -76
17 4 11 10 43 13 71 5 38 10 49 22 47 12 -2 18 8 23 35 9 57 7 261 -3 267 -4
3 -11 35 -15 71 -9 89 -66 270 -114 360 -21 40 -47 71 -167 198 -111 116 -140
162 -131 208 5 24 -4 43 -49 107 -30 42 -55 82 -55 88 0 5 -9 82 -20 170 -10
87 -19 168 -19 179 0 11 -3 34 -7 50 l-7 30 33 -32 c19 -18 36 -31 39 -28 2 3
-10 20 -28 37 -34 33 -88 128 -73 128 5 0 17 -9 27 -20 10 -11 24 -20 32 -20
7 0 13 -4 13 -8 0 -5 18 -18 40 -31 22 -12 40 -18 40 -12 0 12 -34 46 -70 70
-45 29 -69 53 -64 65 2 6 -8 25 -24 41 -31 33 -46 62 -43 83 1 8 -9 31 -23 52
-32 49 -126 236 -126 252 0 6 -11 28 -25 48 -27 38 -55 131 -55 180 0 33 -14
69 -47 120 -24 38 -73 189 -73 227 0 45 60 200 135 348 41 82 74 154 72 159
-2 5 -11 -7 -20 -27 -18 -37 -37 -57 -37 -38 0 6 8 20 17 30 9 11 18 28 19 38
2 9 7 26 13 38 5 11 22 53 36 94 29 84 30 85 138 141 117 62 244 92 399 93 98
2 129 5 133 16 14 36 -43 58 -178 68 -65 4 -102 2 -145 -10 -31 -8 -81 -20
-110 -26 -70 -14 -172 -65 -197 -97 -12 -16 -12 -10 1 31 8 28 26 101 39 163
13 61 38 149 55 195 20 50 35 111 39 157 4 41 18 111 32 155 20 66 32 88 69
124 25 24 60 50 79 58 18 8 50 30 71 49 112 104 236 188 397 268 65 32 82 36
155 37 46 1 97 4 113 8 52 12 71 -5 132 -122z m-402 113 c-3 -5 -10 -10 -15
-10 -5 0 -47 -22 -94 -50 -90 -53 -113 -63 -75 -30 15 12 19 19 10 20 -22 0
36 41 87 60 53 20 96 25 87 10z m-1191 -154 c-7 -17 -34 -23 -34 -6 0 9 32 31
38 26 1 -2 0 -11 -4 -20z m879 -19 c-4 -7 -33 -35 -63 -63 -30 -27 -73 -67
-95 -87 -41 -38 -68 -50 -44 -20 44 55 71 81 134 129 77 58 80 60 68 41z m927
-107 c0 -5 -2 -10 -4 -10 -3 0 -8 5 -11 10 -3 6 -1 10 4 10 6 0 11 -4 11 -10z
m297 -386 c-10 -10 -34 13 -40 38 -6 20 -4 20 20 -5 15 -14 24 -29 20 -33z
m-2212 -84 c3 -5 -1 -10 -9 -10 -9 0 -16 5 -16 10 0 6 4 10 9 10 6 0 13 -4 16
-10z m2304 -75 c0 -5 -6 -1 -14 9 -8 11 -15 24 -15 30 0 5 7 1 15 -10 8 -10
14 -23 14 -29z m-2249 -35 c0 -5 -4 -10 -10 -10 -5 0 -10 5 -10 10 0 6 5 10
10 10 6 0 10 -4 10 -10z m413 -280 c-3 -11 -9 -20 -15 -20 -5 0 -4 9 2 20 6
11 12 20 14 20 2 0 2 -9 -1 -20z m-10 -125 c-9 -19 -18 -33 -21 -31 -4 5 26
66 33 66 3 0 -3 -16 -12 -35z m-46 -115 c-7 -17 -13 -26 -15 -21 -3 10 15 51
22 51 3 0 -1 -14 -7 -30z m-27 -210 c0 -11 -4 -20 -9 -20 -5 0 -7 9 -4 20 3
11 7 20 9 20 2 0 4 -9 4 -20z m-579 -343 c-13 -13 -14 5 -3 43 l7 25 3 -29 c2
-16 -1 -33 -7 -39z m406 -167 c2 -21 -2 -30 -12 -30 -18 0 -18 1 -5 34 12 33
15 33 17 -4z m-1228 -84 c-6 -21 -12 -36 -14 -34 -3 2 0 21 6 42 6 21 12 36
14 34 3 -2 0 -21 -6 -42z m901 -38 c0 -16 -3 -19 -11 -11 -6 6 -8 16 -5 22 11
17 16 13 16 -11z m2737 -40 c-3 -8 -6 -5 -6 6 -1 11 2 17 5 13 3 -3 4 -12 1
-19z m-2317 -214 c0 -8 -4 -12 -10 -9 -5 3 -10 10 -10 16 0 5 5 9 10 9 6 0 10
-7 10 -16z m-172 -58 c3 -12 -1 -17 -10 -14 -7 3 -15 13 -16 22 -3 12 1 17 10
14 7 -3 15 -13 16 -22z m72 -52 c0 -8 6 -14 14 -14 23 0 106 -92 106 -117 0
-13 5 -23 10 -23 6 0 10 -9 10 -20 0 -14 -6 -20 -17 -18 -11 2 -19 -7 -24 -26
-10 -37 -24 -46 -75 -46 -39 0 -41 2 -52 38 -7 21 -9 68 -6 107 3 39 5 83 4
98 0 16 2 33 5 38 8 13 25 1 25 -17z m169 -90 c3 -16 1 -17 -13 -5 -19 16 -21
34 -3 29 6 -3 14 -13 16 -24z m-342 -406 c-3 -8 -6 -5 -6 6 -1 11 2 17 5 13 3
-3 4 -12 1 -19z m590 -180 c-3 -8 -6 -5 -6 6 -1 11 2 17 5 13 3 -3 4 -12 1
-19z m1503 19 c0 -2 -10 -12 -22 -23 l-23 -19 19 23 c18 21 26 27 26 19z
m-2390 -166 c0 -6 -4 -13 -10 -16 -5 -3 -10 1 -10 9 0 9 5 16 10 16 6 0 10 -4
10 -9z m1997 -27 c-3 -3 -12 -4 -19 -1 -8 3 -5 6 6 6 11 1 17 -2 13 -5z
m-3590 -321 c-3 -10 -5 -4 -5 12 0 17 2 24 5 18 2 -7 2 -21 0 -30z m4423 -363
c0 -5 -5 -10 -11 -10 -5 0 -7 5 -4 10 3 6 8 10 11 10 2 0 4 -4 4 -10z m-1493
-125 c9 -25 -4 -29 -17 -6 -7 15 -7 21 0 21 6 0 13 -7 17 -15z m2646 -42 c-7
-2 -21 -2 -30 0 -10 3 -4 5 12 5 17 0 24 -2 18 -5z m118 -176 c-1 -12 -15 -9
-19 4 -3 6 1 10 8 8 6 -3 11 -8 11 -12z m-301 -7 c0 -5 -4 -10 -10 -10 -5 0
-10 5 -10 10 0 6 5 10 10 10 6 0 10 -4 10 -10z m-2335 -121 l4 -64 -9 50 c-5
27 -12 61 -15 75 -5 19 -4 22 5 14 6 -7 13 -40 15 -75z m-2235 -24 c0 -8 -4
-15 -9 -15 -5 0 -11 7 -15 15 -3 9 0 15 9 15 8 0 15 -7 15 -15z m3280 -105 c0
-5 -4 -10 -10 -10 -5 0 -10 5 -10 10 0 6 5 10 10 10 6 0 10 -4 10 -10z m1537
-132 c-3 -7 -5 -2 -5 12 0 14 2 19 5 13 2 -7 2 -19 0 -25z m378 -77 c3 -5 1
-12 -5 -16 -5 -3 -10 1 -10 9 0 18 6 21 15 7z m-1574 -35 c-27 -12 -38 -1 -21
19 10 12 16 13 27 3 13 -11 12 -14 -6 -22z m699 -42 c0 -9 -5 -14 -12 -12 -18
6 -21 28 -4 28 9 0 16 -7 16 -16z m797 -16 c-3 -8 -6 -5 -6 6 -1 11 2 17 5 13
3 -3 4 -12 1 -19z m-2557 -122 c0 -3 -4 -8 -10 -11 -5 -3 -10 -1 -10 4 0 6 5
11 10 11 6 0 10 -2 10 -4z m-353 -88 c-3 -8 -6 -5 -6 6 -1 11 2 17 5 13 3 -3
4 -12 1 -19z m3123 2 c0 -5 -4 -10 -10 -10 -5 0 -10 5 -10 10 0 6 5 10 10 10
6 0 10 -4 10 -10z m-1940 -41 c0 -18 -2 -19 -15 -9 -15 12 -12 30 6 30 5 0 9
-10 9 -21z m850 8 c0 -7 -37 -47 -44 -47 -16 0 -4 28 17 38 26 13 27 13 27 9z
m-816 -113 c22 -9 20 -24 -3 -24 -21 0 -34 13 -24 24 8 7 8 7 27 0z m86 -14
c0 -5 -4 -10 -10 -10 -5 0 -10 5 -10 10 0 6 5 10 10 10 6 0 10 -4 10 -10z m88
-28 c2 -7 -6 -12 -17 -12 -21 0 -27 11 -14 24 9 9 26 2 31 -12z m904 -54 c-7
-7 -12 -8 -12 -2 0 14 12 26 19 19 2 -3 -1 -11 -7 -17z m-5462 -223 c0 -15 -6
-25 -14 -25 -11 0 -12 5 -3 25 15 31 17 31 17 0z m130 -1 c0 -8 -4 -12 -10 -9
-5 3 -10 10 -10 16 0 5 5 9 10 9 6 0 10 -7 10 -16z m4820 -4 c0 -5 -4 -10 -10
-10 -5 0 -10 5 -10 10 0 6 5 10 10 10 6 0 10 -4 10 -10z m-1490 -30 c0 -5 -4
-10 -10 -10 -5 0 -10 5 -10 10 0 6 5 10 10 10 6 0 10 -4 10 -10z m-404 -67
c-10 -10 -19 5 -10 18 6 11 8 11 12 0 2 -7 1 -15 -2 -18z m-16 -24 c0 -5 -4
-9 -10 -9 -5 0 -10 7 -10 16 0 8 5 12 10 9 6 -3 10 -10 10 -16z m127 -31 c-3
-8 -6 -5 -6 6 -1 11 2 17 5 13 3 -3 4 -12 1 -19z m-3257 -24 c0 -8 -5 -12 -10
-9 -6 4 -8 11 -5 16 9 14 15 11 15 -7z m2880 -4 c0 -13 -28 -25 -38 -16 -3 4
0 11 8 16 20 13 30 12 30 0z m-3210 -62 c0 -35 -16 -56 -31 -41 -9 9 -8 18 5
37 20 32 26 33 26 4z m145 -9 c25 -12 48 -26 51 -31 9 -14 -15 -27 -35 -21
-32 11 -87 73 -66 73 3 0 25 -10 50 -21z m155 -24 c0 -1 -12 -10 -26 -20 -15
-9 -24 -13 -22 -9 3 5 8 17 11 26 4 11 12 15 22 12 8 -3 15 -7 15 -9z m-80
-125 c0 -5 -5 -10 -11 -10 -5 0 -7 5 -4 10 3 6 8 10 11 10 2 0 4 -4 4 -10z
m210 -5 c0 -8 -4 -15 -10 -15 -5 0 -10 7 -10 15 0 8 5 15 10 15 6 0 10 -7 10
-15z m-243 -74 c-12 -27 -23 -45 -25 -41 -2 5 4 22 12 39 9 16 16 37 16 46 0
9 4 14 9 10 6 -3 0 -27 -12 -54z m-27 -81 c0 -5 -5 -10 -11 -10 -5 0 -7 5 -4
10 3 6 8 10 11 10 2 0 4 -4 4 -10z m253 -600 c-3 -11 -12 -20 -19 -20 -8 0
-14 9 -14 20 0 13 7 20 19 20 14 0 18 -5 14 -20z m1477 -120 c0 -5 -2 -10 -4
-10 -3 0 -8 5 -11 10 -3 6 -1 10 4 10 6 0 11 -4 11 -10z m-1841 -564 c-3 -3
-16 -2 -29 1 -22 6 -22 7 -4 14 18 6 43 -5 33 -15z m-299 4 c0 -5 -5 -10 -11
-10 -5 0 -7 5 -4 10 3 6 8 10 11 10 2 0 4 -4 4 -10z m1323 -372 c-6 -36 -10
-44 -18 -36 -8 8 6 68 16 68 5 0 6 -15 2 -32z m933 -53 c-15 -15 -16 -15 -16
3 0 24 11 35 23 23 6 -6 4 -16 -7 -26z m-2371 -34 c3 -5 1 -12 -5 -16 -5 -3
-10 1 -10 9 0 18 6 21 15 7z m2385 -12 c0 -5 -7 -9 -15 -9 -8 0 -15 7 -15 15
0 9 6 12 15 9 8 -4 15 -10 15 -15z m-125 -118 c3 -5 1 -12 -5 -16 -5 -3 -10 1
-10 9 0 18 6 21 15 7z m-2162 -137 c11 -11 -3 -24 -18 -18 -8 4 -12 10 -9 15
6 11 18 12 27 3z m-149 -105 c-8 -14 -32 14 -26 30 4 11 8 10 18 -4 7 -10 11
-22 8 -26z m2083 -61 c-3 -8 -6 -5 -6 6 -1 11 2 17 5 13 3 -3 4 -12 1 -19z
m-1107 -16 c0 -13 -12 -22 -22 -16 -10 6 -1 24 13 24 5 0 9 -4 9 -8z m-930
-22 c0 -5 -4 -10 -9 -10 -6 0 -13 5 -16 10 -3 6 1 10 9 10 9 0 16 -4 16 -10z
m410 -70 c0 -5 -4 -10 -9 -10 -6 0 -13 5 -16 10 -3 6 1 10 9 10 9 0 16 -4 16
-10z m1570 -45 c0 -8 -4 -15 -10 -15 -5 0 -10 7 -10 15 0 8 5 15 10 15 6 0 10
-7 10 -15z m-2080 1 c0 -3 -4 -8 -10 -11 -5 -3 -10 -1 -10 4 0 6 5 11 10 11 6
0 10 -2 10 -4z m-7 -61 c-7 -21 -13 -19 -13 6 0 11 4 18 10 14 5 -3 7 -12 3
-20z m-15 -105 c0 -22 -4 -43 -9 -46 -5 -3 -10 -22 -10 -42 -1 -20 -4 -28 -6
-18 -7 27 7 146 17 146 5 0 8 -18 8 -40z m1227 -49 c3 -5 1 -12 -5 -16 -5 -3
-10 1 -10 9 0 18 6 21 15 7z m1055 -11 c0 -5 -4 -10 -10 -10 -5 0 -10 5 -10
10 0 6 5 10 10 10 6 0 10 -4 10 -10z m-2284 -227 c-10 -10 -19 5 -10 18 6 11
8 11 12 0 2 -7 1 -15 -2 -18z m694 -172 c-6 -12 -15 -19 -21 -16 -15 10 -10
33 9 37 24 6 25 3 12 -21z m-600 -5 c0 -11 -19 -15 -25 -6 -3 5 1 10 9 10 9 0
16 -2 16 -4z m-282 -24 c2 -7 -3 -12 -12 -12 -9 0 -16 7 -16 16 0 17 22 14 28
-4z m1692 8 c0 -5 -5 -10 -11 -10 -5 0 -7 5 -4 10 3 6 8 10 11 10 2 0 4 -4 4
-10z m-635 -80 c3 -5 1 -10 -4 -10 -6 0 -11 5 -11 10 0 6 2 10 4 10 3 0 8 -4
11 -10z m1005 -20 c0 -5 -7 -10 -15 -10 -8 0 -15 5 -15 10 0 6 7 10 15 10 8 0
15 -4 15 -10z m-593 -6 c-3 -3 -12 -4 -19 -1 -8 3 -5 6 6 6 11 1 17 -2 13 -5z
m-542 -24 c3 -6 -1 -13 -10 -16 -19 -8 -30 0 -20 15 8 14 22 14 30 1z m1039
-6 c4 -10 1 -14 -6 -12 -15 5 -23 28 -10 28 5 0 13 -7 16 -16z m166 -54 c12
-8 11 -10 -7 -10 -13 0 -23 5 -23 10 0 13 11 13 30 0z m-1840 -10 c0 -5 -4
-10 -10 -10 -5 0 -10 5 -10 10 0 6 5 10 10 10 6 0 10 -4 10 -10z m2391 -63
c-1 -12 -15 -9 -19 4 -3 6 1 10 8 8 6 -3 11 -8 11 -12z m262 -37 c3 -11 1 -20
-4 -20 -5 0 -9 9 -9 20 0 11 2 20 4 20 2 0 6 -9 9 -20z m-2153 -37 c-12 -8
-24 -12 -27 -9 -9 8 30 36 40 29 5 -3 -1 -12 -13 -20z m-140 -117 l-23 -21 19
33 c10 18 20 28 23 21 2 -6 -7 -21 -19 -33z m-39 -73 c-10 -17 -10 -16 -11 3
0 23 13 41 18 25 2 -6 -1 -18 -7 -28z m-51 -127 c0 -3 -4 -8 -10 -11 -5 -3
-10 -1 -10 4 0 6 5 11 10 11 6 0 10 -2 10 -4z m-10 -66 c-6 -11 -15 -18 -21
-14 -6 4 -6 11 2 20 17 21 31 17 19 -6z m7 -42 c-3 -8 -6 -5 -6 6 -1 11 2 17
5 13 3 -3 4 -12 1 -19z m-87 -2 c0 -3 -4 -8 -10 -11 -5 -3 -10 -1 -10 4 0 6 5
11 10 11 6 0 10 -2 10 -4z m90 -37 c0 -5 -4 -9 -10 -9 -5 0 -10 7 -10 16 0 8
5 12 10 9 6 -3 10 -10 10 -16z m-680 1 c0 -5 -7 -10 -15 -10 -8 0 -15 5 -15
10 0 6 7 10 15 10 8 0 15 -4 15 -10z m640 -61 c0 -11 -4 -18 -10 -14 -5 3 -7
12 -3 20 7 21 13 19 13 -6z"/>
<path d="M6190 9014 c-30 -8 -77 -31 -105 -50 -27 -20 -69 -48 -92 -62 -42
-27 -54 -42 -31 -42 6 0 66 27 132 61 154 77 217 88 332 59 91 -24 103 -24 84
-6 -16 14 -137 42 -215 49 -27 3 -75 -1 -105 -9z"/>
<path d="M6245 8941 c-33 -9 -86 -29 -119 -44 -32 -15 -62 -25 -66 -22 -4 3
-13 -2 -20 -10 -7 -8 -18 -15 -26 -15 -7 0 -26 -28 -42 -62 l-30 -63 44 -14
c39 -12 42 -15 26 -27 -39 -28 4 -25 105 9 122 40 270 67 388 72 44 2 82 4 84
4 2 1 -2 7 -8 15 -9 10 -8 16 4 26 12 10 12 15 -3 38 -22 35 -36 46 -101 77
-71 34 -155 40 -236 16z m193 -32 c24 -8 62 -46 62 -61 0 -2 -23 -12 -50 -23
-32 -12 -49 -24 -46 -32 3 -8 -3 -13 -15 -13 -16 0 -18 3 -9 19 5 11 10 42 10
70 0 55 2 56 48 40z m-96 -87 c-3 -7 -14 -12 -26 -10 -16 2 -20 9 -18 28 2 14
11 31 20 38 15 11 18 9 23 -15 3 -15 3 -34 1 -41z m-229 -9 c4 -20 2 -42 -3
-48 -6 -7 -5 -16 3 -25 10 -10 6 -11 -18 -5 -36 8 -69 40 -59 58 14 24 48 57
59 57 7 0 15 -17 18 -37z m67 -3 c0 -5 -4 -10 -10 -10 -5 0 -10 5 -10 10 0 6
5 10 10 10 6 0 10 -4 10 -10z m-147 -67 c-7 -2 -19 -2 -25 0 -7 3 -2 5 12 5
14 0 19 -2 13 -5z"/>
<path d="M5090 8790 c-177 -12 -270 -43 -352 -118 -73 -67 -138 -134 -138
-143 0 -19 18 -7 90 61 50 47 97 81 149 105 42 20 85 41 95 47 10 5 78 11 150
13 72 2 141 4 154 4 29 1 28 17 -2 25 -13 3 -30 7 -38 9 -7 2 -56 1 -108 -3z"/>
<path d="M4980 8724 c-58 -21 -105 -45 -175 -90 -92 -59 -112 -76 -145 -124
-13 -19 -42 -56 -64 -83 -39 -47 -45 -76 -9 -40 52 50 82 70 119 81 80 23 103
8 34 -23 -22 -10 -46 -25 -53 -33 -10 -13 -8 -14 13 -10 14 4 61 20 105 37 84
33 354 86 482 94 38 3 39 4 48 37 5 21 -3 36 -42 82 -52 61 -60 66 -65 42 -2
-13 -8 -12 -33 8 -25 19 -42 23 -115 25 -47 1 -92 0 -100 -3z m231 -79 c27
-25 53 -45 59 -45 6 0 3 -11 -6 -25 -15 -23 -22 -25 -93 -24 -42 0 -70 3 -63
6 7 3 12 25 12 62 0 32 -6 63 -12 70 -11 11 -7 13 21 7 21 -4 53 -24 82 -51z
m-139 -45 c3 -21 -2 -26 -24 -28 -31 -4 -36 10 -16 53 9 21 14 23 24 13 8 -7
15 -24 16 -38z m-229 -42 c8 -65 -1 -76 -45 -52 -18 11 -35 20 -37 21 -5 3 61
83 69 83 4 0 10 -23 13 -52z"/>
<path d="M5941 8074 c-12 -15 -21 -29 -21 -33 0 -3 -16 -23 -35 -43 -29 -32
-40 -38 -76 -38 -34 0 -49 7 -80 35 -53 47 -98 47 -113 -2 -10 -30 20 -44 108
-51 112 -8 134 -6 167 22 17 14 38 26 48 26 10 0 26 9 37 21 10 12 34 29 53
38 40 19 42 36 4 36 -16 1 -38 4 -49 8 -17 6 -27 2 -43 -19z"/>
<path d="M6284 7814 c1 -14 -20 -16 -164 -18 -145 -2 -171 -5 -218 -24 -29
-12 -71 -22 -93 -22 -42 0 -167 -47 -230 -86 -79 -49 -242 -125 -257 -119 -8
3 -19 0 -24 -7 -6 -10 -8 -8 -8 5 0 19 -15 23 -25 7 -7 -12 32 -80 46 -80 5 0
9 7 9 15 0 8 6 15 13 16 6 0 24 3 40 5 15 3 27 0 27 -6 0 -5 17 -10 38 -10 48
0 171 -26 187 -40 7 -6 65 -15 128 -21 107 -9 120 -8 179 12 34 12 80 30 100
40 44 22 168 143 168 163 0 8 20 29 44 47 25 17 47 38 50 45 3 8 10 14 16 14
6 0 8 -5 4 -12 -4 -7 -3 -8 4 -4 16 9 15 69 0 84 -17 17 -36 15 -34 -4z m-234
-74 c-131 -24 -328 -75 -430 -111 -112 -39 -119 -37 -34 11 84 46 137 65 219
79 33 5 78 16 100 25 26 9 75 15 140 14 l100 0 -95 -18z m120 -41 c-19 -12
-37 -22 -40 -22 -3 0 -25 -12 -50 -27 -58 -34 -226 -88 -310 -100 -72 -10
-218 -15 -225 -8 -3 2 13 12 35 22 22 10 40 21 40 26 0 8 93 40 215 74 111 32
240 55 305 55 l65 1 -35 -21z m-48 -86 c-30 -41 -61 -68 -124 -106 -47 -28
-71 -35 -134 -40 -79 -7 -204 8 -204 24 0 5 15 10 33 10 17 1 41 3 52 5 11 2
34 6 50 8 17 2 44 7 60 11 46 12 237 87 260 102 28 19 29 17 7 -14z"/>
<path d="M5121 6864 c0 -11 3 -14 6 -6 3 7 2 16 -1 19 -3 4 -6 -2 -5 -13z"/>
<path d="M5145 6860 c4 -6 11 -8 16 -5 14 9 11 15 -7 15 -8 0 -12 -5 -9 -10z"/>
<path d="M5301 10079 c-18 -11 -31 -22 -28 -25 3 -3 23 6 44 20 45 31 33 35
-16 5z"/>
<path d="M1540 3930 c0 -5 5 -10 11 -10 5 0 7 5 4 10 -3 6 -8 10 -11 10 -2 0
-4 -4 -4 -10z"/>
<path d="M1650 3883 c-41 -8 -46 -20 -21 -54 l24 -32 -40 5 c-76 11 -94 -24
-41 -79 l32 -33 -56 0 c-35 0 -60 5 -67 14 -15 18 -45 26 -62 16 -10 -7 -9
-14 4 -34 11 -16 15 -35 11 -55 -6 -26 -11 -31 -35 -31 -29 0 -35 -6 -21 -26
15 -23 57 -37 115 -38 67 -2 92 -21 71 -53 -21 -33 -41 -38 -80 -20 -45 22
-71 9 -52 -27 14 -27 27 -36 56 -36 36 0 25 -17 -15 -24 -61 -11 -72 -16 -84
-38 -9 -16 -7 -24 11 -43 l22 -24 -41 -11 c-24 -6 -41 -17 -41 -25 0 -23 45
-47 82 -43 39 4 45 29 9 38 -23 5 -21 7 17 22 50 19 55 44 11 53 -40 9 -32 27
20 42 53 15 74 31 66 51 -3 8 6 26 20 40 26 26 35 85 14 97 -7 5 -3 15 10 29
20 21 20 22 2 53 l-19 31 38 6 c21 3 42 11 46 17 3 6 -13 31 -37 55 l-43 44
55 -3 c50 -2 54 0 57 22 2 13 -1 28 -7 34 -17 17 -13 24 14 31 14 4 25 13 25
21 0 15 -19 17 -70 8z m-96 -262 l28 -29 -22 -12 c-28 -15 -120 6 -114 27 2 7
6 20 9 28 8 27 68 19 99 -14z"/>
<path d="M1300 3150 c0 -5 6 -10 14 -10 7 0 31 -8 52 -17 l39 -16 -35 -11
c-50 -14 -54 -27 -18 -59 38 -33 27 -47 -37 -47 -60 0 -70 10 -55 54 17 52 3
58 -17 8 -14 -36 -20 -42 -45 -42 -21 0 -28 -5 -28 -20 0 -24 24 -37 81 -46
101 -14 147 -45 118 -80 -10 -13 -15 -12 -33 5 -33 30 -76 32 -76 3 0 -23 40
-62 63 -62 26 0 20 -17 -15 -50 -21 -18 -44 -30 -63 -30 -39 0 -58 -13 -53
-36 3 -16 13 -19 57 -19 30 0 56 -5 58 -10 5 -16 -46 -41 -97 -49 -24 -4 -50
-12 -57 -18 -32 -26 2 -100 53 -112 17 -5 35 -1 51 10 22 14 24 21 19 54 -6
36 -4 40 28 60 43 26 53 53 31 87 -16 24 -16 26 9 52 14 15 26 36 26 47 0 12
9 29 20 39 26 23 26 65 0 98 l-20 25 26 16 c25 17 25 24 7 72 -2 6 8 16 22 22
46 21 32 45 -44 70 -79 25 -81 26 -81 12z m-67 -590 c31 -24 26 -50 -9 -50
-25 0 -60 42 -49 60 10 16 30 12 58 -10z"/>
<path d="M7124 2925 c10 -8 24 -16 30 -18 30 -11 -5 -14 -54 -5 -30 5 -107 8
-170 6 -103 -4 -122 -7 -182 -35 -101 -47 -156 -91 -192 -153 -100 -172 -138
-422 -87 -581 51 -162 172 -275 373 -349 114 -41 259 -35 362 15 167 82 260
150 300 218 44 75 76 209 83 345 l6 123 -42 82 c-22 45 -56 98 -74 117 -18 19
-36 42 -39 51 -7 19 -145 117 -198 142 -83 37 -134 56 -116 42z m49 -93 c135
-48 247 -162 307 -315 30 -75 31 -87 25 -156 -16 -180 -44 -270 -102 -332
-119 -128 -232 -179 -393 -179 -208 0 -381 93 -458 246 -46 92 -55 131 -54
234 1 113 22 189 84 305 66 122 142 189 245 215 66 16 280 5 346 -18z"/>
<path d="M1142 2427 c-24 -26 -28 -57 -10 -75 9 -9 7 -12 -10 -12 -15 0 -22
-6 -22 -19 0 -14 10 -21 36 -25 37 -7 79 -40 69 -56 -3 -4 -34 -18 -70 -30
-36 -12 -68 -26 -71 -31 -9 -14 24 -48 69 -71 22 -11 37 -22 34 -24 -5 -5
-113 -33 -130 -34 -5 0 -6 26 -2 58 6 53 5 56 -9 38 -9 -11 -16 -30 -16 -42 0
-42 -11 -54 -47 -54 -30 0 -34 -3 -31 -22 3 -20 11 -24 58 -30 81 -9 140 -24
153 -38 13 -13 14 -12 -70 -70 -51 -36 -48 -52 12 -77 49 -20 49 -33 0 -33
-74 0 -109 -41 -62 -73 l22 -15 -25 -10 c-39 -15 -59 -44 -70 -102 -12 -65
-13 -60 5 -60 7 0 18 -6 22 -13 14 -23 57 -47 84 -47 36 0 89 45 89 75 0 29
-16 35 -96 35 -62 0 -64 1 -64 25 0 28 36 49 102 60 21 3 40 10 43 14 10 16
-6 40 -33 49 -27 9 -27 9 14 21 22 6 49 20 59 31 16 17 16 22 3 42 -11 19 -12
29 -2 58 26 71 10 121 -42 134 -33 9 -23 19 34 35 44 12 50 24 31 64 -9 21 -7
28 16 51 23 23 26 34 23 76 l-3 49 35 3 c45 4 55 34 13 43 -56 13 -57 14 -39
33 9 10 16 28 16 40 0 52 -78 71 -118 29z m78 -53 c0 -27 -7 -29 -32 -10 -21
15 -23 33 -5 39 22 7 37 -4 37 -29z m-29 -192 c-19 -35 -39 -46 -57 -31 -15
12 -12 15 22 31 48 22 47 22 35 0z m-100 -672 c-26 -23 -52 -25 -69 -8 -22 22
-13 28 41 28 l52 -1 -24 -19z"/>
<path d="M927 1373 c-45 -19 -55 -48 -31 -94 40 -80 106 -113 167 -84 56 26
75 102 42 165 -15 28 -19 30 -78 29 -34 0 -79 -7 -100 -16z m173 -39 c0 -8 -5
-12 -10 -9 -6 4 -8 11 -5 16 9 14 15 11 15 -7z m-86 -9 c3 -8 12 -15 21 -15 8
0 15 -4 15 -10 0 -14 -33 -13 -48 2 -14 14 -16 38 -3 38 5 0 11 -7 15 -15z
m-52 -25 c16 -28 21 -30 75 -30 l58 -1 -28 -24 c-31 -27 -48 -30 -77 -15 -24
13 -71 80 -64 92 9 14 19 9 36 -22z"/>
<path d="M1017 24 c3 -7 9 -14 14 -14 14 0 10 17 -5 23 -10 4 -13 1 -9 -9z"/>
</g>
</svg>
